<svg width="16" height="16" viewBox="0 0 16 16" fill="none" xmlns="http://www.w3.org/2000/svg">
<g clip-path="url(#clip0_1090_5043)">
<path d="M15.6465 6.80019C15.0801 6.35379 14.0225 6.73459 13.1985 7.64979C12.4289 7.43539 11.7457 7.48819 11.1633 7.81619C10.0481 8.44499 9.62566 9.89139 9.46886 10.9906C9.44486 11.1602 9.42246 11.333 9.39846 11.5058C9.14886 13.4082 8.91206 15.2066 6.65606 15.2066C6.61926 15.2066 6.58246 15.2066 6.54406 15.205C5.90406 15.189 5.44326 14.9906 5.13606 14.597C4.56966 13.8706 4.66726 12.6834 4.73926 12.1906C4.96326 12.0898 5.12166 11.869 5.12966 11.6082L5.16326 10.6338L6.35846 10.2786C6.50726 10.2338 6.62246 10.1394 6.70566 10.0226C6.92006 10.0706 7.18726 10.0594 7.37606 9.94099C7.70726 9.73459 8.19046 9.33779 8.79206 8.58739C9.44966 7.76659 9.61126 7.10579 9.62726 6.67699C9.63526 6.37139 9.42246 6.06099 9.26406 5.97459C9.10566 5.88819 9.07686 6.04979 9.10726 6.35379C9.15206 6.81139 9.08006 7.50739 8.48966 8.26419C8.47846 8.27699 8.46886 8.28659 8.45926 8.29939L8.46406 8.26579C8.60486 8.04819 8.72646 7.81939 8.81926 7.57459C9.77926 5.03219 7.70406 2.06579 7.61446 1.94099C7.59526 1.91379 7.56966 1.89619 7.54406 1.87539C7.60326 1.73939 7.58886 1.61619 7.48966 1.55219C7.33446 1.45139 7.09126 1.14899 6.95046 0.876992L6.70086 0.400192C6.56166 0.129792 6.26726 0.0817916 6.04646 0.292992L5.42726 0.894592C5.20486 1.10579 5.24806 1.39219 5.51846 1.53459L5.95526 1.75859C6.22566 1.90099 6.52166 2.15699 6.61766 2.33139C6.68966 2.46099 6.85606 2.48019 7.02726 2.39219C7.20326 2.64819 8.91206 5.24179 8.12806 7.31699C8.09606 7.40179 8.04646 7.48019 8.00486 7.56179L8.00006 7.56339C7.95206 7.55219 7.90566 7.53459 7.85606 7.53459C7.73286 7.53459 7.61766 7.57139 7.52166 7.63219L7.66726 7.77139C7.57926 7.87859 7.52006 8.00979 7.52006 8.15859C7.52006 8.19539 7.52806 8.23059 7.53446 8.26579C7.25926 8.56659 6.91526 8.83539 6.49926 9.06419C6.34566 8.97779 6.16006 8.95059 5.97926 9.00499L4.52326 9.43699L2.96486 8.94419C2.78726 8.88819 2.60166 8.91219 2.44966 8.99539C1.70726 8.55539 1.20166 7.99379 0.944056 7.31699C0.123256 5.14259 2.04166 2.39699 2.06086 2.36979C2.06246 2.36499 2.06246 2.36019 2.06726 2.35539C2.06726 2.35539 2.11206 2.39859 2.16806 2.44819C2.22406 2.50099 2.34566 2.40179 2.44166 2.22739C2.53606 2.05139 2.83526 1.79539 3.10566 1.65459L3.54086 1.42899C3.81286 1.28819 3.85446 1.00179 3.63366 0.788992L3.01286 0.188992C2.79206 -0.0238084 2.50086 0.0241916 2.35846 0.296192L2.11046 0.772992C1.96806 1.04499 1.72646 1.34579 1.57126 1.44819C1.41286 1.54739 1.34406 1.68339 1.41286 1.74739L1.53926 1.86579C1.50886 1.88659 1.48166 1.90899 1.45766 1.94099C1.36806 2.06579 -0.707144 5.03219 0.252856 7.57459C0.576056 8.42579 1.19686 9.11859 2.10566 9.64659C2.12966 9.90099 2.30406 10.1282 2.56326 10.2114L3.83526 10.613L3.80166 11.5618C3.79686 11.7586 3.87846 11.9378 4.00966 12.0658C3.92166 12.653 3.80486 14.0898 4.55206 15.0482C4.99846 15.621 5.66246 15.9218 6.52646 15.9426C6.57286 15.9458 6.61766 15.9458 6.66246 15.9458C9.56006 15.9458 9.87686 13.541 10.1313 11.6034C10.1537 11.4338 10.1761 11.2642 10.2001 11.0962C10.3889 9.77299 10.8593 8.83699 11.5265 8.46099C11.8609 8.27059 12.2625 8.21779 12.7201 8.29779C12.1457 9.24659 12.0737 10.237 12.5969 10.653C13.2033 11.133 14.3777 10.6594 15.2193 9.59539C16.0609 8.53139 16.2513 7.28019 15.6465 6.80019ZM8.35366 8.42579C8.30406 8.48499 8.25446 8.54899 8.20646 8.60339C8.25446 8.54259 8.30246 8.48179 8.34726 8.41939L8.35366 8.42579ZM14.1377 8.71539C13.8225 9.11539 13.3825 9.29299 13.1553 9.11219C12.9889 8.98099 12.9841 8.69459 13.1153 8.39379C13.2353 8.43219 13.3569 8.47379 13.4817 8.52659C13.6721 8.60659 13.8865 8.52019 13.9665 8.33139C14.0465 8.14419 13.9585 7.92659 13.7697 7.84659C13.7137 7.82259 13.6609 7.80499 13.6049 7.78579C13.8625 7.59699 14.1329 7.53939 14.2945 7.66899C14.5233 7.84979 14.4513 8.31859 14.1377 8.71539Z" fill="#DBDDE0"/>
</g>
<defs>
<clipPath id="clip0_1090_5043">
<rect width="16" height="16" fill="white"/>
</clipPath>
</defs>
</svg>
