<svg width="70" height="70" viewBox="0 0 70 70" fill="none" xmlns="http://www.w3.org/2000/svg">
<circle cx="35" cy="35" r="35" fill="#4267B2"/>
<path d="M35 15C24 15 15 24.0161 15 35.1205C15 45.1607 22.32 53.494 31.88 55V40.9438H26.8V35.1205H31.88V30.6827C31.88 25.6426 34.86 22.8715 39.44 22.8715C41.62 22.8715 43.9 23.253 43.9 23.253V28.2128H41.38C38.9 28.2128 38.12 29.759 38.12 31.3454V35.1205H43.68L42.78 40.9438H38.12V55C42.8328 54.2526 47.1244 51.8384 50.2198 48.1928C53.3152 44.5474 55.0107 39.9109 55 35.1205C55 24.0161 46 15 35 15Z" fill="white"/>
</svg>
