<svg width="70" height="70" viewBox="0 0 70 70" fill="none" xmlns="http://www.w3.org/2000/svg">
<circle cx="35" cy="35" r="35" fill="url(#paint0_linear_2120_3682)"/>
<path fill-rule="evenodd" clip-rule="evenodd" d="M26.7393 15.2455C23.4835 15.3924 20.6616 16.1884 18.383 18.4574C16.0964 20.7383 15.3103 23.5714 15.163 26.7933C15.0715 28.8043 14.5362 43.9966 16.0884 47.9808C17.1352 50.6687 19.1969 52.7354 21.9094 53.7855C23.175 54.2778 24.6199 54.6111 26.7393 54.7084C44.4609 55.5104 51.0302 55.0737 53.8004 47.9808C54.2919 46.7183 54.6302 45.2747 54.7238 43.1605C55.5337 25.3934 54.5924 21.5423 51.5038 18.4574C49.0541 16.0137 46.1724 14.3502 26.7393 15.2455ZM26.9025 51.1351C24.9621 51.0478 23.9094 50.7245 23.2069 50.4525C21.4397 49.7656 20.1123 48.4437 19.4297 46.6869C18.2476 43.6595 18.6397 29.281 18.7452 26.9544C18.8487 24.6755 19.3103 22.5927 20.9183 20.9847C22.9084 18.9996 25.4796 18.0266 42.9863 18.8167C45.2709 18.92 47.3585 19.3807 48.9705 20.9847C50.9605 22.9699 51.9476 25.5608 51.1436 43.0003C51.0561 44.9359 50.7317 45.9861 50.459 46.6869C48.658 51.3023 44.5146 51.9431 26.9025 51.1351ZM43.1793 24.3792C43.1793 25.6934 44.248 26.7621 45.5674 26.7621C46.8869 26.7621 47.9575 25.6934 47.9575 24.3792C47.9575 23.0651 46.8869 21.9974 45.5674 21.9974C44.248 21.9974 43.1793 23.0651 43.1793 24.3792ZM24.7253 34.9759C24.7253 40.6058 29.3005 45.1703 34.9444 45.1703C40.5883 45.1703 45.1635 40.6058 45.1635 34.9759C45.1635 29.3461 40.5883 24.7845 34.9444 24.7845C29.3005 24.7845 24.7253 29.3461 24.7253 34.9759ZM28.3115 34.9759C28.3115 31.3233 31.2807 28.3597 34.9444 28.3597C38.6081 28.3597 41.5773 31.3233 41.5773 34.9759C41.5773 38.6306 38.6081 41.5951 34.9444 41.5951C31.2807 41.5951 28.3115 38.6306 28.3115 34.9759Z" fill="white"/>
<defs>
<linearGradient id="paint0_linear_2120_3682" x1="35" y1="9.42964e-08" x2="34.5" y2="81" gradientUnits="userSpaceOnUse">
<stop stop-color="#405DE6"/>
<stop offset="0.16" stop-color="#5B51D8"/>
<stop offset="0.3" stop-color="#833AB4"/>
<stop offset="0.420836" stop-color="#C13584"/>
<stop offset="0.608273" stop-color="#C98C37"/>
<stop offset="0.755242" stop-color="#E9A240"/>
<stop offset="0.85" stop-color="#FFDC80"/>
</linearGradient>
</defs>
</svg>
