<svg width="70" height="70" viewBox="0 0 70 70" fill="none" xmlns="http://www.w3.org/2000/svg">
<circle cx="35" cy="35" r="35" fill="#0077B5"/>
<path fill-rule="evenodd" clip-rule="evenodd" d="M55 51H47V37.002C47 33.162 45.306 31.0195 42.268 31.0195C38.962 31.0195 37 33.252 37 37.002V51H29V25H37V27.9238C37 27.9238 39.51 23.5195 45.166 23.5195C50.824 23.5195 55 26.9722 55 34.1162V51ZM19.884 20.8418C17.186 20.8418 15 18.6379 15 15.9199C15 13.2039 17.186 11 19.884 11C22.58 11 24.766 13.2039 24.766 15.9199C24.768 18.6379 22.58 20.8418 19.884 20.8418ZM15 51H25V25H15V51Z" fill="white"/>
</svg>
