<svg width="16" height="16" viewBox="0 0 16 16" fill="none" xmlns="http://www.w3.org/2000/svg">
<path d="M3.21053 11.2H4.68421V12.6H13.5263V1.4H4.68421V2.8H3.21053V0.7C3.21053 0.514348 3.28816 0.336301 3.42634 0.205025C3.56453 0.0737498 3.75195 0 3.94737 0H14.2632C14.4586 0 14.646 0.0737498 14.7842 0.205025C14.9224 0.336301 15 0.514348 15 0.7V13.3C15 13.4857 14.9224 13.6637 14.7842 13.795C14.646 13.9263 14.4586 14 14.2632 14H3.94737C3.75195 14 3.56453 13.9263 3.42634 13.795C3.28816 13.6637 3.21053 13.4857 3.21053 13.3V11.2ZM4.68421 6.3H9.8421V7.7H4.68421V9.8L1 7L4.68421 4.2V6.3Z" fill="#707070" fill-opacity="0.5"/>
</svg>
