<svg width="25" height="23" viewBox="0 0 25 23" fill="none" xmlns="http://www.w3.org/2000/svg">
<path d="M1.67658e-06 7.49251C-0.00065729 6.50776 0.192941 5.53256 0.56971 4.62274C0.946479 3.71292 1.49902 2.88636 2.19569 2.19039C2.89236 1.49442 3.71947 0.942706 4.62967 0.566847C5.53986 0.190989 6.51526 -0.00163377 7.5 1.04378e-05H17.5C21.6413 1.04378e-05 25 3.36876 25 7.49251V22.5H7.5C3.35875 22.5 1.67658e-06 19.1313 1.67658e-06 15.0075V7.49251ZM22.5 20V7.49251C22.4967 6.16814 21.9686 4.89906 21.0314 3.96328C20.0943 3.02751 18.8244 2.50133 17.5 2.50001H7.5C6.84356 2.49836 6.19325 2.62632 5.58637 2.87654C4.97949 3.12676 4.42798 3.49433 3.96345 3.95815C3.49893 4.42198 3.13054 4.97294 2.87941 5.57945C2.62827 6.18595 2.49934 6.83607 2.5 7.49251V15.0075C2.50331 16.3319 3.03139 17.601 3.96857 18.5367C4.90576 19.4725 6.17562 19.9987 7.5 20H22.5ZM15 10H17.5V12.5H15V10ZM7.5 10H10V12.5H7.5V10Z" fill="#22D1EE"/>
</svg>
