<svg width="16" height="16" viewBox="0 0 16 16" fill="none" xmlns="http://www.w3.org/2000/svg">
<g clip-path="url(#clip0_1090_5053)">
<path d="M-4 4.66001C-4.00053 3.78468 -3.84565 2.91783 -3.54423 2.1091C-3.24282 1.30038 -2.80079 0.565654 -2.24345 -0.0529875C-1.68612 -0.671629 -1.02442 -1.16204 -0.296268 -1.49614C0.431888 -1.83023 1.2122 -2.00145 2 -1.99999H10C13.313 -1.99999 16 0.994453 16 4.66001V18H2C-1.313 18 -4 15.0056 -4 11.34V4.66001ZM14 15.7778V4.66001C13.9974 3.48279 13.5749 2.35472 12.8251 1.52292C12.0754 0.691117 11.0595 0.223403 10 0.222231H2C1.47485 0.220768 0.954603 0.334507 0.469098 0.556926C-0.0164075 0.779345 -0.457621 1.10607 -0.829239 1.51836C-1.20086 1.93065 -1.49557 2.42039 -1.69647 2.95951C-1.89738 3.49862 -2.00053 4.0765 -2 4.66001V11.34C-1.99735 12.5172 -1.57489 13.6453 -0.825141 14.4771C-0.075397 15.3089 0.940497 15.7766 2 15.7778H14ZM8 6.8889H10V9.11112H8V6.8889ZM2 6.8889H4V9.11112H2V6.8889Z" fill="#D9D9D9"/>
</g>
<defs>
<clipPath id="clip0_1090_5053">
<rect width="16" height="16" fill="white"/>
</clipPath>
</defs>
</svg>
