<svg width="70" height="70" viewBox="0 0 70 70" fill="none" xmlns="http://www.w3.org/2000/svg">
<circle cx="35" cy="35" r="35" fill="#E60023"/>
<path d="M31.4427 41.456C30.0921 46.9628 28.4438 52.2422 23.5595 55C22.0506 46.6767 25.7726 40.4256 27.5011 33.789C24.5537 29.9305 27.8551 22.1648 34.0701 24.0779C41.7174 26.4314 27.4484 38.4246 37.0263 39.9227C47.0285 41.4862 51.1121 26.4216 44.9108 21.5231C35.9493 14.449 18.8256 21.362 20.9308 31.4901C21.443 33.9657 24.7307 34.7167 22.2451 38.1346C16.5097 37.1444 14.7987 33.6258 15.0184 28.9344C15.3736 21.2547 23.8871 15.8786 32.4281 15.1345C43.2287 14.1941 53.3653 18.2185 54.7649 26.1229C56.3416 35.0448 49.8906 44.707 38.3406 44.0117C35.2098 43.8222 33.8955 42.6151 31.4427 41.456Z" fill="white"/>
</svg>
