<svg width="70" height="70" viewBox="0 0 70 70" fill="none" xmlns="http://www.w3.org/2000/svg">
<circle cx="35" cy="35" r="35" fill="#25D366"/>
<path d="M55 34.4854C55 45.2462 46.2088 53.9696 35.362 53.9696C31.9198 53.9696 28.6864 53.0892 25.8716 51.5474L15 55L18.5439 44.5432C16.7569 41.6084 15.7278 38.1624 15.7278 34.4841C15.7291 23.7234 24.5177 15 35.3646 15C46.2101 15.0026 55 23.7247 55 34.4854ZM35.3606 18.1069C26.2577 18.1069 18.853 25.4555 18.853 34.4894C18.853 38.0737 20.0217 41.3919 21.9977 44.0919L19.9369 50.174L26.2786 48.1588C28.8872 49.8701 32.0085 50.8666 35.3606 50.8666C44.4636 50.8666 51.8709 43.5193 51.8709 34.4854C51.8735 25.4555 44.4649 18.1069 35.3606 18.1069ZM45.2788 38.9737C45.1562 38.7767 44.8353 38.6567 44.3553 38.4167C43.8766 38.1767 41.5067 37.0224 41.0671 36.8659C40.6236 36.7054 40.3028 36.6245 39.9819 37.1032C39.6649 37.5819 38.7415 38.6567 38.4584 38.9776C38.178 39.2971 37.8976 39.3376 37.4163 39.1015C36.935 38.8589 35.3828 38.358 33.5437 36.7315C32.1129 35.4637 31.1463 33.9024 30.8672 33.4237C30.5842 32.9463 30.8385 32.6881 31.0772 32.4507C31.2924 32.2355 31.5585 31.8924 31.7998 31.612C32.0411 31.3342 32.1207 31.1372 32.2811 30.8177C32.4389 30.4981 32.3594 30.2203 32.2407 29.979C32.1207 29.739 31.1594 27.3912 30.7564 26.4351C30.3559 25.4803 29.9555 25.6381 29.6738 25.6381C29.3933 25.6381 29.0725 25.599 28.7516 25.599C28.4307 25.599 27.909 25.7151 27.4694 26.1938C27.0299 26.6725 25.7855 27.8268 25.7855 30.1772C25.7855 32.5302 27.5086 34.7985 27.7499 35.1167C27.9925 35.4337 31.0811 40.4149 35.9737 42.3271C40.8689 44.2379 40.8689 43.6001 41.7506 43.5193C42.6349 43.4384 44.5992 42.3649 44.9984 41.251C45.4001 40.1319 45.4001 39.1732 45.2788 38.9737Z" fill="white"/>
</svg>
