<svg width="42" height="42" viewBox="0 0 42 42" fill="none" xmlns="http://www.w3.org/2000/svg">
<circle cx="21" cy="21" r="21" fill="#D0D0D0"/>
<path d="M18.7823 9.50438H23.2177C23.7426 9.50438 24.1681 9.9299 24.1681 10.4548V12.6725H17.8319V10.4548C17.8319 9.9299 18.2574 9.50438 18.7823 9.50438ZM15.9311 10.4548V12.6725H13.7134C11.4388 12.6725 9.59485 14.5164 9.59485 16.791V18.6919C9.59485 19.9167 10.5877 20.9095 11.8125 20.9095H18.4655V20.2759C18.4655 19.576 19.0329 19.0087 19.7328 19.0087H22.2673C22.9672 19.0087 23.5345 19.576 23.5345 20.2759V20.9095H30.1875C31.4123 20.9095 32.4052 19.9167 32.4052 18.6919V16.791C32.4052 14.5164 30.5612 12.6725 28.2867 12.6725H26.069V10.4548C26.069 8.88008 24.7924 7.60352 23.2177 7.60352H18.7823C17.2076 7.60352 15.9311 8.88008 15.9311 10.4548ZM32.4052 22.163C31.7651 22.5728 31.004 22.8104 30.1875 22.8104H23.5345C23.5345 23.5103 22.9672 24.0777 22.2673 24.0777H19.7328C19.0329 24.0777 18.4655 23.5103 18.4655 22.8104H11.8125C10.996 22.8104 10.235 22.5728 9.59485 22.163V26.2953C9.59485 28.5699 11.4388 30.4139 13.7134 30.4139H28.2867C30.5612 30.4139 32.4052 28.5699 32.4052 26.2953V22.163Z" fill="#384D6C"/>
</svg>
