<svg width="28" height="28" viewBox="0 0 28 28" fill="none" xmlns="http://www.w3.org/2000/svg">
<g clip-path="url(#clip0_1298_370)">
<path d="M24.4471 26.1468C24.3404 25.1255 24.3138 24.0961 24.2124 23.0721C24.0604 21.5388 23.8418 20.0135 23.3884 18.5335C23.1431 17.7415 22.7698 17.0535 22.0258 16.6161C21.3138 16.1975 20.5378 15.9495 19.7591 15.7068C19.4871 15.6215 19.5351 15.8135 19.5511 15.9521C19.6231 16.6215 19.5618 17.2828 19.4231 17.9361C19.3778 18.1468 19.4498 18.2428 19.6311 18.3468C20.3991 18.7761 20.8364 19.4321 20.8844 20.3201C20.9324 21.2348 20.7458 22.1335 20.6898 23.0401C20.6524 23.6561 20.5858 24.2748 20.3271 24.8481C20.0151 25.5415 19.4764 25.8161 18.7404 25.6748C18.4604 25.6215 18.2764 25.4935 18.3218 25.1841C18.3671 24.8801 18.5778 24.7735 18.8578 24.8295C19.2098 24.8988 19.4151 24.7335 19.5591 24.4455C19.6578 24.2455 19.7111 24.0268 19.7324 23.8055C19.8364 22.7841 19.9484 21.7628 20.0311 20.7388C20.1058 19.8135 19.6098 19.1121 18.7884 18.9255C17.9404 18.7335 17.2098 19.1175 16.8604 19.9815C16.5804 20.6721 16.3511 21.3841 16.0844 22.0828C15.9324 22.4775 15.8018 22.8748 15.7218 23.2881C15.6178 23.8241 15.7244 24.0215 16.2204 24.2455C16.4578 24.3521 16.5724 24.5201 16.4898 24.7735C16.4071 25.0295 16.2204 25.1015 15.9644 25.0535C15.2338 24.9148 14.8098 24.3948 14.8231 23.6455C14.8284 23.3388 14.8738 23.0428 14.9591 22.7495C15.2738 21.6615 15.6871 20.6081 16.1084 19.5575C16.4871 18.6135 17.2418 18.0935 18.2684 18.0215C18.4684 18.0055 18.5538 17.9495 18.5911 17.7548C18.7164 17.1068 18.7351 16.4588 18.6764 15.8028C18.6498 15.4935 18.5298 15.3255 18.2071 15.2748C17.9458 15.2348 17.6844 15.1468 17.4391 15.0455C17.1938 14.9468 17.0871 14.9761 17.0018 15.2535C16.7004 16.2615 16.2791 17.2241 15.7911 18.1575C15.5564 18.6081 15.2844 19.0401 14.9831 19.5628C14.8631 18.9015 14.7724 18.3388 14.6551 17.7788C14.6018 17.5281 14.6071 17.3015 14.7164 17.0641C14.7778 16.9281 14.9404 16.7681 14.7778 16.6215C14.5191 16.3868 14.2364 16.1815 13.9618 15.9655C13.9538 15.9575 13.9164 15.9761 13.9004 15.9895C13.6338 16.2188 13.3298 16.4161 13.1218 16.6881C12.9964 16.8508 13.2391 17.0641 13.2924 17.2615C13.3031 17.3068 13.3271 17.3548 13.3218 17.3975C13.2098 18.0855 13.0924 18.7708 12.9671 19.5228C12.8791 19.4188 12.8391 19.3788 12.8124 19.3335C12.1084 18.1975 11.5351 17.0028 11.1004 15.7388C11.0124 15.4801 11.0204 15.0801 10.7991 14.9975C10.5911 14.9201 10.2791 15.1255 10.0124 15.2001C9.87377 15.2401 9.75111 15.2775 9.69777 15.4401C9.59644 15.7548 9.45244 16.0535 9.37777 16.3681C8.88711 18.4161 9.00977 20.4428 9.64177 22.4455C9.73777 22.7495 9.85244 22.9148 10.1991 22.9815C10.8684 23.1148 11.2284 23.8481 10.9991 24.4828C10.7591 25.1521 10.0364 25.4668 9.40711 25.1788C8.77244 24.8908 8.50044 24.1095 8.86844 23.5281C9.00177 23.3175 8.98577 23.1548 8.91377 22.9468C8.23644 21.0028 8.05511 19.0135 8.36711 16.9761C8.43911 16.5068 8.59644 16.0588 8.70311 15.5628C7.77244 15.8348 6.87911 16.0615 6.07378 16.5308C5.48178 16.8748 5.02311 17.3255 4.76444 17.9815C4.45511 18.7681 4.26844 19.5841 4.11111 20.4108C3.74844 22.3308 3.63644 24.2801 3.48978 26.2241C3.44978 26.7548 3.68711 27.0828 4.10844 27.3308H23.8124C24.3138 27.0935 24.5058 26.7148 24.4471 26.1468ZM9.54577 9.7468C9.72711 9.7948 9.81244 9.8828 9.88177 10.0481C10.2898 11.0241 10.7938 11.9415 11.5431 12.7041C12.1351 13.3095 12.8204 13.7628 13.6898 13.8508C14.7831 13.9628 15.6364 13.4748 16.3751 12.7361C17.1271 11.9815 17.6498 11.0748 18.0578 10.0935C18.1138 9.96014 18.1324 9.79214 18.3351 9.77347C19.0631 9.70414 19.6311 8.55214 19.5111 7.8508C19.4764 7.6508 19.4018 7.4668 19.1831 7.45347C18.9111 7.4348 18.9618 7.2908 19.0018 7.1228C19.1458 6.52014 19.2071 5.90414 19.2364 5.37614C19.2551 4.84014 19.2044 4.3948 19.0978 3.96814C18.9351 3.3228 18.6018 2.76814 17.9964 2.4588C17.6391 2.2748 17.3644 2.07214 17.2444 1.6748C17.1991 1.52014 17.0471 1.4188 16.9218 1.3148C16.4578 0.930803 15.9084 0.762803 15.3378 0.706803C13.6284 0.538803 12.0338 0.904137 10.6231 1.8988C9.64977 2.58147 8.98044 3.4828 8.84444 4.70947C8.75377 5.51747 8.79911 6.31747 8.95111 7.1148C8.98311 7.28547 9.05244 7.46414 8.75111 7.4588C8.61511 7.45614 8.52711 7.5708 8.48177 7.70414C8.23111 8.4188 8.80977 9.55214 9.54577 9.7468Z" fill="white"/>
</g>
<defs>
<clipPath id="clip0_1298_370">
<rect width="26.6667" height="26.6667" fill="white" transform="translate(0.666687 0.666504)"/>
</clipPath>
</defs>
</svg>
