<svg xmlns="http://www.w3.org/2000/svg" xmlns:xlink="http://www.w3.org/1999/xlink" width="500" zoomAndPan="magnify" viewBox="0 0 375 374.999991" height="500" preserveAspectRatio="xMidYMid meet" version="1.0"><defs><g/><clipPath id="6594016d91"><path d="M 90.832031 143.324219 L 179.332031 143.324219 L 179.332031 231.824219 L 90.832031 231.824219 Z M 90.832031 143.324219 " clip-rule="nonzero"/></clipPath><clipPath id="be1dbd848c"><path d="M 142 192.65625 L 167.160156 192.65625 L 167.160156 198.746094 L 142 198.746094 Z M 142 192.65625 " clip-rule="nonzero"/></clipPath><clipPath id="c7dfd16c16"><path d="M 113 192 L 138 192 L 138 200 L 113 200 Z M 113 192 " clip-rule="nonzero"/></clipPath><clipPath id="1a0f99997c"><path d="M 113.078125 193.289062 L 137.425781 192.644531 L 137.578125 198.390625 L 113.230469 199.035156 Z M 113.078125 193.289062 " clip-rule="nonzero"/></clipPath><clipPath id="51d688a0ef"><path d="M 113.078125 193.289062 L 137.425781 192.644531 L 137.578125 198.390625 L 113.230469 199.035156 Z M 113.078125 193.289062 " clip-rule="nonzero"/></clipPath><clipPath id="4d0ef0afdb"><path d="M 133 161 L 143 161 L 143 215 L 133 215 Z M 133 161 " clip-rule="nonzero"/></clipPath><clipPath id="a88f55dc15"><path d="M 134.269531 215.152344 L 133.042969 159.691406 L 141.160156 159.511719 L 142.386719 214.972656 Z M 134.269531 215.152344 " clip-rule="nonzero"/></clipPath><clipPath id="c5763e572e"><path d="M 134.269531 215.152344 L 133.042969 159.691406 L 141.160156 159.511719 L 142.386719 214.972656 Z M 134.269531 215.152344 " clip-rule="nonzero"/></clipPath><clipPath id="7e0e107bfb"><path d="M 137 202 L 140 202 L 140 214 L 137 214 Z M 137 202 " clip-rule="nonzero"/></clipPath><clipPath id="5412777ce2"><path d="M 134.269531 215.152344 L 133.042969 159.691406 L 141.160156 159.511719 L 142.386719 214.972656 Z M 134.269531 215.152344 " clip-rule="nonzero"/></clipPath><clipPath id="f6e58b26ff"><path d="M 134.269531 215.152344 L 133.042969 159.691406 L 141.160156 159.511719 L 142.386719 214.972656 Z M 134.269531 215.152344 " clip-rule="nonzero"/></clipPath><clipPath id="5b631f2b99"><path d="M 135 159 L 141 159 L 141 165 L 135 165 Z M 135 159 " clip-rule="nonzero"/></clipPath><clipPath id="f3f1bdd630"><path d="M 134.269531 215.152344 L 133.042969 159.691406 L 141.160156 159.511719 L 142.386719 214.972656 Z M 134.269531 215.152344 " clip-rule="nonzero"/></clipPath><clipPath id="12bab4d59b"><path d="M 134.269531 215.152344 L 133.042969 159.691406 L 141.160156 159.511719 L 142.386719 214.972656 Z M 134.269531 215.152344 " clip-rule="nonzero"/></clipPath></defs><g clip-path="url(#6594016d91)"><path fill="#0cc0df" d="M 135.007812 231.671875 C 110.601562 231.671875 90.832031 211.765625 90.832031 187.496094 C 90.832031 163.230469 110.601562 143.324219 135.007812 143.324219 C 159.410156 143.324219 179.179688 163.09375 179.179688 187.496094 C 179.179688 211.902344 159.273438 231.671875 135.007812 231.671875 Z M 135.007812 146.050781 C 112.101562 146.050781 93.558594 164.59375 93.558594 187.496094 C 93.558594 210.402344 112.101562 228.945312 135.007812 228.945312 C 157.910156 228.945312 176.453125 210.402344 176.453125 187.496094 C 176.453125 164.59375 157.773438 146.050781 135.007812 146.050781 Z M 135.007812 146.050781 " fill-opacity="1" fill-rule="nonzero"/></g><g fill="#38b6ff" fill-opacity="1"><g transform="translate(107.316987, 206.504643)"><g><path d="M 15.9375 -31.859375 C 17.09375 -31.859375 18.242188 -31.75 19.390625 -31.53125 C 20.535156 -31.320312 21.632812 -30.976562 22.6875 -30.5 C 23.363281 -30.1875 24.0625 -29.757812 24.78125 -29.21875 C 25.507812 -28.6875 26.117188 -28.070312 26.609375 -27.375 C 27.109375 -26.6875 27.359375 -25.929688 27.359375 -25.109375 C 27.359375 -24.140625 27.039062 -23.335938 26.40625 -22.703125 C 25.769531 -22.066406 24.851562 -21.765625 23.65625 -21.796875 C 24.113281 -23.066406 24.222656 -24.269531 23.984375 -25.40625 C 23.742188 -26.539062 23.238281 -27.539062 22.46875 -28.40625 C 21.707031 -29.269531 20.757812 -29.945312 19.625 -30.4375 C 18.488281 -30.9375 17.257812 -31.1875 15.9375 -31.1875 C 14.226562 -31.1875 12.625 -30.785156 11.125 -29.984375 C 9.625 -29.191406 8.300781 -28.09375 7.15625 -26.6875 C 6.007812 -25.289062 5.117188 -23.671875 4.484375 -21.828125 C 3.847656 -19.992188 3.53125 -18.03125 3.53125 -15.9375 C 3.53125 -13.976562 3.8125 -12.128906 4.375 -10.390625 C 4.9375 -8.648438 5.710938 -7.097656 6.703125 -5.734375 C 7.703125 -4.378906 8.851562 -3.273438 10.15625 -2.421875 C 11.65625 -1.460938 13.203125 -0.90625 14.796875 -0.75 C 16.398438 -0.59375 17.972656 -0.769531 19.515625 -1.28125 C 21.066406 -1.789062 22.515625 -2.546875 23.859375 -3.546875 C 25.203125 -4.554688 26.367188 -5.738281 27.359375 -7.09375 L 27.359375 -3.53125 C 25.910156 -2.394531 24.203125 -1.519531 22.234375 -0.90625 C 20.265625 -0.300781 18.164062 0 15.9375 0 C 13.75 0 11.691406 -0.410156 9.765625 -1.234375 C 7.835938 -2.054688 6.144531 -3.195312 4.6875 -4.65625 C 3.226562 -6.113281 2.082031 -7.804688 1.25 -9.734375 C 0.414062 -11.660156 0 -13.726562 0 -15.9375 C 0 -18.144531 0.410156 -20.207031 1.234375 -22.125 C 2.054688 -24.050781 3.195312 -25.742188 4.65625 -27.203125 C 6.113281 -28.671875 7.804688 -29.8125 9.734375 -30.625 C 11.660156 -31.445312 13.726562 -31.859375 15.9375 -31.859375 Z M 15.9375 -31.859375 "/></g></g></g><g fill="#00bf63" fill-opacity="1"><g transform="translate(124.766084, 190.751076)"><g><path d="M 11.5 0 C 10.300781 0 9.101562 -0.109375 7.90625 -0.328125 C 6.707031 -0.546875 5.566406 -0.90625 4.484375 -1.40625 C 3.773438 -1.726562 3.046875 -2.160156 2.296875 -2.703125 C 1.554688 -3.242188 0.9375 -3.878906 0.4375 -4.609375 C -0.0625 -5.335938 -0.3125 -6.128906 -0.3125 -6.984375 C -0.3125 -7.953125 0.0078125 -8.765625 0.65625 -9.421875 C 1.300781 -10.078125 2.238281 -10.40625 3.46875 -10.40625 C 3 -9.03125 2.898438 -7.734375 3.171875 -6.515625 C 3.453125 -5.304688 4.003906 -4.257812 4.828125 -3.375 C 5.765625 -2.382812 6.945312 -1.671875 8.375 -1.234375 C 9.8125 -0.796875 11.320312 -0.613281 12.90625 -0.6875 C 14.488281 -0.757812 15.988281 -1.054688 17.40625 -1.578125 C 18.820312 -2.109375 19.988281 -2.8125 20.90625 -3.6875 C 21.863281 -4.65625 22.453125 -5.664062 22.671875 -6.71875 C 22.890625 -7.769531 22.800781 -8.789062 22.40625 -9.78125 C 22.019531 -10.78125 21.378906 -11.675781 20.484375 -12.46875 C 19.585938 -13.257812 18.523438 -13.875 17.296875 -14.3125 C 16.097656 -14.75 14.773438 -15.09375 13.328125 -15.34375 C 11.878906 -15.59375 10.421875 -15.867188 8.953125 -16.171875 C 7.492188 -16.484375 6.125 -16.925781 4.84375 -17.5 C 3.570312 -18.070312 2.5 -18.882812 1.625 -19.9375 C 0.71875 -21.050781 0.191406 -22.320312 0.046875 -23.75 C -0.0976562 -25.1875 0.148438 -26.519531 0.796875 -27.75 C 1.316406 -28.800781 2.050781 -29.660156 3 -30.328125 C 3.957031 -31.003906 5.015625 -31.53125 6.171875 -31.90625 C 7.328125 -32.289062 8.507812 -32.554688 9.71875 -32.703125 C 10.9375 -32.847656 12.070312 -32.921875 13.125 -32.921875 C 14.320312 -32.921875 15.519531 -32.8125 16.71875 -32.59375 C 17.925781 -32.375 19.070312 -32.019531 20.15625 -31.53125 C 20.851562 -31.207031 21.578125 -30.765625 22.328125 -30.203125 C 23.078125 -29.648438 23.695312 -29.015625 24.1875 -28.296875 C 24.6875 -27.578125 24.9375 -26.796875 24.9375 -25.953125 C 24.9375 -24.953125 24.613281 -24.125 23.96875 -23.46875 C 23.320312 -22.8125 22.382812 -22.5 21.15625 -22.53125 C 21.601562 -23.757812 21.726562 -24.925781 21.53125 -26.03125 C 21.34375 -27.144531 20.910156 -28.128906 20.234375 -28.984375 C 19.503906 -29.972656 18.507812 -30.726562 17.25 -31.25 C 15.988281 -31.78125 14.632812 -32.097656 13.1875 -32.203125 C 11.738281 -32.304688 10.34375 -32.195312 9 -31.875 C 8.007812 -31.664062 7.035156 -31.304688 6.078125 -30.796875 C 5.128906 -30.285156 4.320312 -29.632812 3.65625 -28.84375 C 3 -28.050781 2.613281 -27.101562 2.5 -26 C 2.382812 -24.757812 2.648438 -23.738281 3.296875 -22.9375 C 3.941406 -22.132812 4.796875 -21.488281 5.859375 -21 C 6.929688 -20.519531 8.019531 -20.132812 9.125 -19.84375 C 10.507812 -19.519531 11.988281 -19.234375 13.5625 -18.984375 C 15.144531 -18.734375 16.6875 -18.390625 18.1875 -17.953125 C 19.695312 -17.515625 21.007812 -16.84375 22.125 -15.9375 C 23.207031 -15.0625 24.023438 -14.03125 24.578125 -12.84375 C 25.140625 -11.65625 25.40625 -10.425781 25.375 -9.15625 C 25.34375 -7.882812 25.019531 -6.660156 24.40625 -5.484375 C 23.789062 -4.316406 22.867188 -3.320312 21.640625 -2.5 C 20.210938 -1.53125 18.566406 -0.867188 16.703125 -0.515625 C 14.847656 -0.171875 13.113281 0 11.5 0 Z M 11.5 0 "/></g></g></g><g clip-path="url(#be1dbd848c)"><path fill="#38b6ff" d="M 166.40625 198.476562 C 165.355469 190.828125 158.277344 192.808594 153.164062 195.054688 C 149.496094 196.691406 146.902344 197.105469 143.335938 194.875 C 143.335938 194.875 143.550781 194.636719 143.550781 194.636719 C 143.90625 195.058594 144.210938 195.539062 144.382812 196.082031 C 145.179688 198.535156 142.078125 199.910156 142.054688 196.890625 C 142.066406 196.597656 142.496094 196.605469 142.492188 196.898438 C 142.484375 197.332031 142.539062 197.914062 142.925781 198.144531 C 143.089844 198.238281 143.304688 198.222656 143.5 198.113281 C 144.140625 197.734375 144.246094 196.871094 144.039062 196.183594 C 143.898438 195.699219 143.625 195.25 143.296875 194.847656 C 143.238281 194.773438 143.25 194.664062 143.320312 194.605469 C 143.378906 194.558594 143.460938 194.558594 143.523438 194.59375 C 144.90625 195.550781 146.523438 196.226562 148.222656 196.214844 C 149.933594 196.203125 151.527344 195.523438 153.078125 194.84375 C 155.164062 193.910156 157.308594 193.035156 159.597656 192.734375 C 161.964844 192.394531 164.453125 192.949219 165.816406 195.097656 C 166.464844 196.09375 166.820312 197.234375 167.023438 198.375 C 167.054688 198.546875 166.941406 198.710938 166.769531 198.742188 C 166.597656 198.773438 166.429688 198.652344 166.40625 198.476562 Z M 166.40625 198.476562 " fill-opacity="1" fill-rule="nonzero"/></g><g clip-path="url(#c7dfd16c16)"><g clip-path="url(#1a0f99997c)"><g clip-path="url(#51d688a0ef)"><path fill="#38b6ff" d="M 113.816406 193.527344 C 115.027344 200.894531 121.824219 198.800781 126.707031 196.5 C 130.214844 194.824219 132.707031 194.355469 136.214844 196.417969 C 136.214844 196.417969 136.011719 196.65625 136.011719 196.65625 C 135.65625 196.257812 135.351562 195.800781 135.171875 195.28125 C 134.335938 192.925781 137.304688 191.519531 137.402344 194.4375 C 137.398438 194.722656 136.984375 194.722656 136.976562 194.441406 C 136.976562 194.023438 136.90625 193.460938 136.527344 193.246094 C 136.367188 193.160156 136.15625 193.183594 135.972656 193.292969 C 135.363281 193.675781 135.28125 194.515625 135.5 195.171875 C 135.648438 195.636719 135.925781 196.0625 136.253906 196.445312 C 136.3125 196.515625 136.304688 196.621094 136.234375 196.679688 C 136.179688 196.726562 136.101562 196.730469 136.042969 196.695312 C 134.679688 195.808594 133.097656 195.195312 131.457031 195.25 C 129.804688 195.304688 128.277344 196.003906 126.796875 196.699219 C 124.804688 197.652344 122.753906 198.558594 120.550781 198.90625 C 118.265625 199.296875 115.847656 198.820312 114.472656 196.78125 C 113.824219 195.835938 113.449219 194.742188 113.222656 193.640625 C 113.191406 193.476562 113.296875 193.316406 113.460938 193.28125 C 113.625 193.25 113.789062 193.359375 113.816406 193.527344 Z M 113.816406 193.527344 " fill-opacity="1" fill-rule="nonzero"/></g></g></g><g clip-path="url(#4d0ef0afdb)"><g clip-path="url(#a88f55dc15)"><g clip-path="url(#c5763e572e)"><path fill="#00bf63" d="M 142.105469 214.359375 C 140.335938 211.109375 139.859375 207.285156 139.6875 203.640625 C 139.5 199.71875 139.671875 195.796875 139.941406 191.886719 C 140.226562 187.933594 140.597656 183.984375 140.789062 180.023438 C 140.878906 178.050781 140.914062 176.070312 140.882812 174.089844 C 140.851562 172.234375 140.820312 170.355469 140.554688 168.503906 C 140.292969 166.640625 139.722656 164.785156 138.40625 163.382812 C 137.25 162.15625 135.507812 161.289062 133.804688 161.671875 C 133.09375 161.832031 133.285156 162.949219 134 162.933594 C 135.519531 162.886719 136.820312 163.449219 137.808594 164.605469 C 138.921875 165.898438 139.339844 167.65625 139.578125 169.296875 C 140.097656 173.023438 140.035156 176.828125 139.859375 180.578125 C 139.492188 188.195312 138.417969 195.804688 138.855469 203.433594 C 139.066406 207.324219 139.597656 211.25 141.730469 214.59375 C 141.882812 214.835938 142.246094 214.613281 142.105469 214.359375 Z M 142.105469 214.359375 " fill-opacity="1" fill-rule="nonzero"/></g></g></g><g clip-path="url(#7e0e107bfb)"><g clip-path="url(#5412777ce2)"><g clip-path="url(#f6e58b26ff)"><path fill="#00bf63" d="M 139.59375 212.9375 C 138.300781 209.632812 137.933594 206.195312 137.832031 202.675781 C 137.828125 202.484375 137.503906 202.425781 137.484375 202.636719 C 137.035156 206.171875 137.957031 209.820312 139.449219 213.019531 C 139.484375 213.085938 139.628906 213.027344 139.59375 212.9375 Z M 139.59375 212.9375 " fill-opacity="1" fill-rule="nonzero"/></g></g></g><g clip-path="url(#5b631f2b99)"><g clip-path="url(#f3f1bdd630)"><g clip-path="url(#12bab4d59b)"><path fill="#00bf63" d="M 140.480469 164.644531 C 140.273438 163.363281 139.632812 162.191406 138.6875 161.316406 C 138.207031 160.871094 137.660156 160.488281 137.0625 160.234375 C 136.585938 160.023438 135.738281 159.625 135.265625 159.972656 C 135.046875 160.132812 135.019531 160.402344 135.203125 160.601562 C 135.535156 160.972656 136.269531 160.902344 136.746094 161.046875 C 137.285156 161.214844 137.792969 161.460938 138.257812 161.773438 C 139.269531 162.480469 140.019531 163.503906 140.371094 164.679688 C 140.382812 164.757812 140.496094 164.722656 140.480469 164.644531 Z M 140.480469 164.644531 " fill-opacity="1" fill-rule="nonzero"/></g></g></g><g fill="#0cc0df" fill-opacity="1"><g transform="translate(187.334464, 180.749988)"><g><path d="M 7.796875 0.203125 C 6.484375 0.203125 5.328125 -0.0664062 4.328125 -0.609375 C 3.328125 -1.160156 2.539062 -1.984375 1.96875 -3.078125 C 1.40625 -4.179688 1.125 -5.535156 1.125 -7.140625 C 1.125 -8.742188 1.40625 -10.09375 1.96875 -11.1875 C 2.539062 -12.289062 3.328125 -13.113281 4.328125 -13.65625 C 5.328125 -14.207031 6.484375 -14.484375 7.796875 -14.484375 C 9.171875 -14.484375 10.335938 -14.210938 11.296875 -13.671875 C 12.265625 -13.140625 12.953125 -12.320312 13.359375 -11.21875 L 11.296875 -9.96875 L 11.0625 -9.96875 C 10.75 -10.707031 10.332031 -11.238281 9.8125 -11.5625 C 9.289062 -11.882812 8.617188 -12.046875 7.796875 -12.046875 C 6.617188 -12.046875 5.695312 -11.65625 5.03125 -10.875 C 4.363281 -10.09375 4.03125 -8.847656 4.03125 -7.140625 C 4.03125 -5.441406 4.363281 -4.195312 5.03125 -3.40625 C 5.695312 -2.625 6.617188 -2.234375 7.796875 -2.234375 C 9.660156 -2.234375 10.800781 -3.132812 11.21875 -4.9375 L 11.453125 -4.9375 L 13.53125 -3.859375 C 13.144531 -2.503906 12.476562 -1.488281 11.53125 -0.8125 C 10.59375 -0.132812 9.347656 0.203125 7.796875 0.203125 Z M 7.796875 0.203125 "/></g></g></g><g fill="#0cc0df" fill-opacity="1"><g transform="translate(201.332899, 180.749988)"><g><path d="M 4.203125 0.203125 C 3.515625 0.203125 2.914062 0.078125 2.40625 -0.171875 C 1.894531 -0.429688 1.503906 -0.804688 1.234375 -1.296875 C 0.960938 -1.785156 0.828125 -2.375 0.828125 -3.0625 C 0.828125 -3.707031 0.960938 -4.242188 1.234375 -4.671875 C 1.503906 -5.109375 1.925781 -5.460938 2.5 -5.734375 C 3.070312 -6.015625 3.820312 -6.226562 4.75 -6.375 C 5.394531 -6.476562 5.882812 -6.59375 6.21875 -6.71875 C 6.550781 -6.84375 6.773438 -6.984375 6.890625 -7.140625 C 7.015625 -7.296875 7.078125 -7.492188 7.078125 -7.734375 C 7.078125 -8.078125 6.953125 -8.335938 6.703125 -8.515625 C 6.460938 -8.703125 6.066406 -8.796875 5.515625 -8.796875 C 4.910156 -8.796875 4.335938 -8.660156 3.796875 -8.390625 C 3.253906 -8.128906 2.785156 -7.78125 2.390625 -7.34375 L 2.203125 -7.34375 L 1.0625 -9.046875 C 1.613281 -9.660156 2.28125 -10.132812 3.0625 -10.46875 C 3.851562 -10.8125 4.710938 -10.984375 5.640625 -10.984375 C 7.066406 -10.984375 8.097656 -10.675781 8.734375 -10.0625 C 9.378906 -9.457031 9.703125 -8.597656 9.703125 -7.484375 L 9.703125 -2.8125 C 9.703125 -2.332031 9.910156 -2.09375 10.328125 -2.09375 C 10.492188 -2.09375 10.65625 -2.117188 10.8125 -2.171875 L 10.953125 -2.140625 L 11.140625 -0.25 C 10.992188 -0.15625 10.785156 -0.078125 10.515625 -0.015625 C 10.253906 0.046875 9.960938 0.078125 9.640625 0.078125 C 8.992188 0.078125 8.488281 -0.046875 8.125 -0.296875 C 7.769531 -0.546875 7.515625 -0.929688 7.359375 -1.453125 L 7.15625 -1.46875 C 6.625 -0.351562 5.640625 0.203125 4.203125 0.203125 Z M 5.0625 -1.8125 C 5.6875 -1.8125 6.1875 -2.019531 6.5625 -2.4375 C 6.9375 -2.863281 7.125 -3.453125 7.125 -4.203125 L 7.125 -5.296875 L 6.9375 -5.328125 C 6.769531 -5.203125 6.554688 -5.09375 6.296875 -5 C 6.035156 -4.914062 5.65625 -4.832031 5.15625 -4.75 C 4.570312 -4.644531 4.148438 -4.472656 3.890625 -4.234375 C 3.628906 -4.003906 3.5 -3.671875 3.5 -3.234375 C 3.5 -2.773438 3.632812 -2.421875 3.90625 -2.171875 C 4.1875 -1.929688 4.570312 -1.8125 5.0625 -1.8125 Z M 5.0625 -1.8125 "/></g></g></g><g fill="#0cc0df" fill-opacity="1"><g transform="translate(212.685884, 180.749988)"><g><path d="M 1.546875 0 L 1.546875 -10.765625 L 4.1875 -10.765625 L 4.1875 -9.171875 L 4.390625 -9.125 C 4.648438 -9.726562 4.988281 -10.171875 5.40625 -10.453125 C 5.832031 -10.734375 6.347656 -10.875 6.953125 -10.875 C 7.566406 -10.875 8.03125 -10.769531 8.34375 -10.5625 L 7.890625 -8.21875 L 7.6875 -8.1875 C 7.507812 -8.257812 7.335938 -8.3125 7.171875 -8.34375 C 7.015625 -8.375 6.816406 -8.390625 6.578125 -8.390625 C 5.828125 -8.390625 5.253906 -8.125 4.859375 -7.59375 C 4.460938 -7.0625 4.265625 -6.210938 4.265625 -5.046875 L 4.265625 0 Z M 1.546875 0 "/></g></g></g><g fill="#0cc0df" fill-opacity="1"><g transform="translate(221.129849, 180.749988)"><g><path d="M 10.640625 -4.78125 L 3.71875 -4.78125 C 3.800781 -3.84375 4.066406 -3.160156 4.515625 -2.734375 C 4.972656 -2.304688 5.597656 -2.09375 6.390625 -2.09375 C 7.003906 -2.09375 7.503906 -2.207031 7.890625 -2.4375 C 8.273438 -2.664062 8.582031 -3.015625 8.8125 -3.484375 L 9.03125 -3.484375 L 10.828125 -2.328125 C 10.472656 -1.578125 9.941406 -0.96875 9.234375 -0.5 C 8.523438 -0.03125 7.578125 0.203125 6.390625 0.203125 C 5.273438 0.203125 4.3125 -0.00390625 3.5 -0.421875 C 2.6875 -0.847656 2.0625 -1.476562 1.625 -2.3125 C 1.1875 -3.15625 0.96875 -4.175781 0.96875 -5.375 C 0.96875 -6.601562 1.195312 -7.632812 1.65625 -8.46875 C 2.125 -9.3125 2.75 -9.941406 3.53125 -10.359375 C 4.320312 -10.773438 5.207031 -10.984375 6.1875 -10.984375 C 7.71875 -10.984375 8.882812 -10.578125 9.6875 -9.765625 C 10.5 -8.960938 10.90625 -7.78125 10.90625 -6.21875 C 10.90625 -5.644531 10.882812 -5.203125 10.84375 -4.890625 Z M 8.328125 -6.53125 C 8.296875 -7.34375 8.101562 -7.9375 7.75 -8.3125 C 7.394531 -8.6875 6.875 -8.875 6.1875 -8.875 C 4.820312 -8.875 4.019531 -8.09375 3.78125 -6.53125 Z M 8.328125 -6.53125 "/></g></g></g><g fill="#0cc0df" fill-opacity="1"><g transform="translate(232.834259, 180.749988)"><g><path d="M 6.328125 0.203125 C 5.335938 0.203125 4.457031 0.0820312 3.6875 -0.15625 C 2.914062 -0.40625 2.269531 -0.726562 1.75 -1.125 C 1.238281 -1.519531 0.847656 -1.957031 0.578125 -2.4375 L 2.125 -4.328125 L 2.375 -4.328125 C 2.800781 -3.691406 3.34375 -3.179688 4 -2.796875 C 4.664062 -2.421875 5.441406 -2.234375 6.328125 -2.234375 C 7.085938 -2.234375 7.65625 -2.390625 8.03125 -2.703125 C 8.414062 -3.023438 8.609375 -3.46875 8.609375 -4.03125 C 8.609375 -4.375 8.546875 -4.65625 8.421875 -4.875 C 8.304688 -5.101562 8.101562 -5.300781 7.8125 -5.46875 C 7.53125 -5.632812 7.144531 -5.773438 6.65625 -5.890625 L 4.8125 -6.3125 C 3.53125 -6.601562 2.570312 -7.085938 1.9375 -7.765625 C 1.3125 -8.453125 1 -9.335938 1 -10.421875 C 1 -11.222656 1.203125 -11.929688 1.609375 -12.546875 C 2.015625 -13.160156 2.601562 -13.632812 3.375 -13.96875 C 4.144531 -14.3125 5.066406 -14.484375 6.140625 -14.484375 C 7.242188 -14.484375 8.1875 -14.335938 8.96875 -14.046875 C 9.75 -13.753906 10.410156 -13.3125 10.953125 -12.71875 L 9.5625 -10.796875 L 9.3125 -10.796875 C 8.914062 -11.222656 8.457031 -11.539062 7.9375 -11.75 C 7.414062 -11.96875 6.816406 -12.078125 6.140625 -12.078125 C 5.367188 -12.078125 4.78125 -11.9375 4.375 -11.65625 C 3.96875 -11.382812 3.765625 -11.007812 3.765625 -10.53125 C 3.765625 -10.082031 3.90625 -9.722656 4.1875 -9.453125 C 4.476562 -9.179688 4.972656 -8.972656 5.671875 -8.828125 L 7.546875 -8.4375 C 8.929688 -8.144531 9.9375 -7.648438 10.5625 -6.953125 C 11.1875 -6.253906 11.5 -5.335938 11.5 -4.203125 C 11.5 -3.316406 11.304688 -2.539062 10.921875 -1.875 C 10.535156 -1.21875 9.953125 -0.707031 9.171875 -0.34375 C 8.398438 0.0195312 7.453125 0.203125 6.328125 0.203125 Z M 6.328125 0.203125 "/></g></g></g><g fill="#0cc0df" fill-opacity="1"><g transform="translate(245.095092, 180.749988)"><g><path d="M 2.390625 4.578125 C 1.921875 4.578125 1.5 4.539062 1.125 4.46875 C 0.75 4.394531 0.445312 4.300781 0.21875 4.1875 L 0.640625 2 L 0.828125 1.9375 C 0.984375 2.019531 1.179688 2.085938 1.421875 2.140625 C 1.660156 2.191406 1.910156 2.21875 2.171875 2.21875 C 2.609375 2.21875 2.96875 2.160156 3.25 2.046875 C 3.539062 1.929688 3.785156 1.738281 3.984375 1.46875 C 4.191406 1.207031 4.375 0.84375 4.53125 0.375 L 0.234375 -10.765625 L 3.0625 -10.765625 L 5.75 -3.28125 L 5.984375 -3.28125 L 8.578125 -10.765625 L 11.34375 -10.765625 L 7.015625 0.671875 C 6.671875 1.597656 6.289062 2.34375 5.875 2.90625 C 5.457031 3.46875 4.96875 3.882812 4.40625 4.15625 C 3.84375 4.4375 3.171875 4.578125 2.390625 4.578125 Z M 2.390625 4.578125 "/></g></g></g><g fill="#0cc0df" fill-opacity="1"><g transform="translate(256.653075, 180.749988)"><g><path d="M 1.546875 0 L 1.546875 -10.765625 L 4.15625 -10.765625 L 4.15625 -9.1875 L 4.359375 -9.140625 C 5.023438 -10.367188 6.113281 -10.984375 7.625 -10.984375 C 8.863281 -10.984375 9.773438 -10.644531 10.359375 -9.96875 C 10.941406 -9.289062 11.234375 -8.300781 11.234375 -7 L 11.234375 0 L 8.53125 0 L 8.53125 -6.671875 C 8.53125 -7.390625 8.382812 -7.90625 8.09375 -8.21875 C 7.8125 -8.53125 7.351562 -8.6875 6.71875 -8.6875 C 5.945312 -8.6875 5.34375 -8.4375 4.90625 -7.9375 C 4.476562 -7.4375 4.265625 -6.648438 4.265625 -5.578125 L 4.265625 0 Z M 1.546875 0 "/></g></g></g><g fill="#0cc0df" fill-opacity="1"><g transform="translate(269.265332, 180.749988)"><g><path d="M 6.28125 0.203125 C 5.238281 0.203125 4.316406 -0.0078125 3.515625 -0.4375 C 2.710938 -0.875 2.085938 -1.507812 1.640625 -2.34375 C 1.191406 -3.1875 0.96875 -4.195312 0.96875 -5.375 C 0.96875 -6.5625 1.191406 -7.570312 1.640625 -8.40625 C 2.085938 -9.25 2.707031 -9.890625 3.5 -10.328125 C 4.300781 -10.765625 5.210938 -10.984375 6.234375 -10.984375 C 8.503906 -10.984375 9.957031 -10.15625 10.59375 -8.5 L 8.734375 -7.171875 L 8.53125 -7.171875 C 8.3125 -7.679688 8.023438 -8.0625 7.671875 -8.3125 C 7.316406 -8.5625 6.835938 -8.6875 6.234375 -8.6875 C 5.453125 -8.6875 4.84375 -8.414062 4.40625 -7.875 C 3.96875 -7.332031 3.75 -6.5 3.75 -5.375 C 3.75 -4.269531 3.96875 -3.445312 4.40625 -2.90625 C 4.851562 -2.363281 5.476562 -2.09375 6.28125 -2.09375 C 6.863281 -2.09375 7.359375 -2.25 7.765625 -2.5625 C 8.171875 -2.875 8.460938 -3.328125 8.640625 -3.921875 L 8.84375 -3.953125 L 10.765625 -2.890625 C 10.492188 -1.984375 9.988281 -1.238281 9.25 -0.65625 C 8.507812 -0.0820312 7.519531 0.203125 6.28125 0.203125 Z M 6.28125 0.203125 "/></g></g></g><g fill="#0cc0df" fill-opacity="1"><g transform="translate(280.369618, 180.749988)"><g/></g></g><g fill="#0cc0df" fill-opacity="1"><g transform="translate(234.420399, 208.499986)"><g><path d="M 4.4375 0 L 1.859375 0 L 1.859375 -14.28125 L 5.546875 -14.28125 L 9.15625 -3.78125 L 9.359375 -3.78125 L 12.953125 -14.28125 L 16.5625 -14.28125 L 16.5625 0 L 13.890625 0 L 13.890625 -9.4375 L 13.640625 -9.46875 L 10.34375 0 L 7.984375 0 L 4.6875 -9.46875 L 4.4375 -9.4375 Z M 4.4375 0 "/></g></g></g><g fill="#0cc0df" fill-opacity="1"><g transform="translate(252.840934, 208.499986)"><g><path d="M 4.671875 -6.265625 L 4.671875 -2.359375 L 11.5 -2.359375 L 11.5 0 L 1.859375 0 L 1.859375 -14.28125 L 11.34375 -14.28125 L 11.34375 -11.921875 L 4.671875 -11.921875 L 4.671875 -8.578125 L 10.5 -8.578125 L 10.5 -6.265625 Z M 4.671875 -6.265625 "/></g></g></g><g fill="#0cc0df" fill-opacity="1"><g transform="translate(265.111529, 208.499986)"><g><path d="M 7 -14.28125 C 9.3125 -14.28125 11.078125 -13.679688 12.296875 -12.484375 C 13.515625 -11.285156 14.125 -9.503906 14.125 -7.140625 C 14.125 -4.785156 13.515625 -3.003906 12.296875 -1.796875 C 11.078125 -0.597656 9.3125 0 7 0 L 1.859375 0 L 1.859375 -14.28125 Z M 6.828125 -2.375 C 8.296875 -2.375 9.394531 -2.75 10.125 -3.5 C 10.851562 -4.25 11.21875 -5.460938 11.21875 -7.140625 C 11.21875 -8.816406 10.851562 -10.03125 10.125 -10.78125 C 9.394531 -11.53125 8.296875 -11.90625 6.828125 -11.90625 L 4.671875 -11.90625 L 4.671875 -2.375 Z M 6.828125 -2.375 "/></g></g></g><g fill="#0cc0df" fill-opacity="1"><g transform="translate(280.369618, 208.499986)"><g/></g></g></svg>