<svg width="14" height="24" viewBox="0 0 14 24" fill="none" xmlns="http://www.w3.org/2000/svg">
<path d="M11.375 0.333496C12.8247 0.333496 14 1.50875 14 2.9585V21.0418C14 22.4915 12.8247 23.6668 11.375 23.6668H2.625C1.17525 23.6668 0 22.4915 0 21.0418V2.9585C0 1.50875 1.17525 0.333496 2.625 0.333496H11.375ZM8.45833 19.0002H5.54167C5.05843 19.0002 4.66667 19.3919 4.66667 19.8752C4.66667 20.3584 5.05843 20.7502 5.54167 20.7502H8.45833C8.94157 20.7502 9.33333 20.3584 9.33333 19.8752C9.33333 19.3919 8.94157 19.0002 8.45833 19.0002Z" fill="#ABB1BB"/>
</svg>
